<svg xmlns="http://www.w3.org/2000/svg" width="22" height="25" viewBox="0 0 22 25">
    <g fill="none" fill-rule="evenodd">
        <g fill="#37435A" fill-rule="nonzero">
            <path d="M6.486 22.85C7.083 24.114 8.433 25 10 25c1.567 0 2.917-.885 3.514-2.15H6.486zM10 2.438a8.74 8.74 0 0 1 2.973.519v-.114A2.852 2.852 0 0 0 10.118 0h-.236a2.852 2.852 0 0 0-2.855 2.843v.113A8.757 8.757 0 0 1 10 2.438zM19.24 21.237H.76c-.35 0-.67-.235-.743-.575a.713.713 0 0 1 .396-.812c.074-.048.633-.436 1.193-1.612 1.029-2.159 1.244-5.2 1.244-7.37 0-3.918 3.208-7.105 7.15-7.105 3.933 0 7.134 3.172 7.15 7.076v.028c0 2.171.215 5.212 1.244 7.371.56 1.176 1.119 1.564 1.193 1.612a.712.712 0 0 1 .396.812c-.073.34-.393.575-.743.575z"/>
        </g>
        <circle cx="17" cy="8" r="4" fill="#2D75FF" stroke="#FFF"/>
    </g>
</svg>
