<svg xmlns="http://www.w3.org/2000/svg" width="30" height="25" viewBox="0 0 30 25">
    <path fill="#9EB0C2" fill-rule="nonzero" d="M17.91 4.287a5.393 5.393 0 0 1 2.509 4.006 4.33 4.33 0 0 0 1.84.412 4.352 4.352 0 1 0 0-8.705 4.352 4.352 0 0 0-4.35 4.287zm-2.852 8.912a4.353 4.353 0 1 0 0-8.706 4.353 4.353 0 0 0 0 8.706zm1.846.296h-3.693a5.58 5.58 0 0 0-5.573 5.574v4.516l.011.07.311.098c2.933.917 5.48 1.222 7.578 1.222 4.096 0 6.47-1.168 6.616-1.242l.29-.147h.032v-4.517a5.578 5.578 0 0 0-5.572-5.574zm7.201-4.493H20.44a5.364 5.364 0 0 1-1.655 3.736c2.731.812 4.73 3.345 4.73 6.337v1.392c3.618-.133 5.704-1.158 5.84-1.227l.292-.147h.03v-4.519a5.58 5.58 0 0 0-5.572-5.572zM7.42 8.706c.852 0 1.644-.249 2.315-.672a5.387 5.387 0 0 1 2.025-3.436c.004-.081.012-.162.012-.244A4.352 4.352 0 1 0 7.42 8.706zm3.91 4.032a5.367 5.367 0 0 1-1.655-3.715c-.136-.01-.27-.021-.41-.021H5.574A5.58 5.58 0 0 0 0 14.574v4.518l.011.07.312.098c2.352.734 4.452 1.073 6.276 1.18v-1.365c0-2.992 1.998-5.524 4.73-6.337z"/>
</svg>
