<svg xmlns="http://www.w3.org/2000/svg" width="25" height="23" viewBox="0 0 25 23">
    <g fill="#9EB0C2" fill-rule="nonzero">
        <path d="M13.678 19.604v-1.706H0v1.712c0 1.551 1.252 2.833 2.802 2.833h12.255c-.118-.107-.231-.2-.338-.308a3.57 3.57 0 0 1-1.04-2.531zM9.788 9.12l1.997 1.391 2.004-1.39c.548-.38.984-1.236.984-1.91V4.339L11.79 2.84 8.807 4.334v2.878c0 .673.433 1.53.981 1.909zm.45-2.716a.372.372 0 0 1 .532.003l.6.614 1.442-1.464a.372.372 0 0 1 .533 0c.147.15.146.391 0 .54l-1.711 1.737a.375.375 0 0 1-.266.113.373.373 0 0 1-.267-.115l-.866-.887a.387.387 0 0 1 .003-.54zM23.032 0h-.012c-1.09 0-1.997.91-1.997 1.998v3.4H25V1.992A1.985 1.985 0 0 0 23.032 0z"/>
        <path d="M5.706 0C4.658 0 3.805.843 3.805 1.876l-.112 15.226h10.398a.393.393 0 0 1 .378.395v2.081a2.857 2.857 0 0 0 2.835 2.865h.01a2.838 2.838 0 0 0 2.815-2.858V2.038c0-.794.357-1.499.894-2.038H5.706zm2.24 4.175a.367.367 0 0 1 .199-.34l3.38-1.661a.37.37 0 0 1 .329 0l3.385 1.666a.367.367 0 0 1 .2.34v3.078c0 .916-.559 1.996-1.315 2.512l-2.217 1.521a.373.373 0 0 1-.422 0L9.262 9.77c-.757-.517-1.317-1.597-1.317-2.512V4.175zm9.11 11.2H6.706a.377.377 0 0 1 0-.755h10.35a.377.377 0 0 1 0 .756zm0-1.995H6.706a.377.377 0 0 1 0-.756h10.35a.377.377 0 0 1 0 .756z"/>
    </g>
</svg>
