<svg xmlns="http://www.w3.org/2000/svg" width="25" height="25" viewBox="0 0 25 25">
    <g fill="#2D75FF" fill-rule="nonzero">
        <path d="M9.635 0H1.823A1.825 1.825 0 0 0 0 1.823V6.51c0 1.006.818 1.823 1.823 1.823h7.812a1.825 1.825 0 0 0 1.823-1.823V1.823A1.825 1.825 0 0 0 9.635 0zM9.635 10.417H1.823A1.825 1.825 0 0 0 0 12.24v10.937C0 24.182.818 25 1.823 25h7.812a1.825 1.825 0 0 0 1.823-1.823V12.24a1.825 1.825 0 0 0-1.823-1.823zM23.177 16.667h-7.812a1.825 1.825 0 0 0-1.823 1.823v4.687c0 1.005.817 1.823 1.823 1.823h7.812A1.825 1.825 0 0 0 25 23.177V18.49a1.825 1.825 0 0 0-1.823-1.823zM23.177 0h-7.812a1.825 1.825 0 0 0-1.823 1.823V12.76c0 1.006.817 1.823 1.823 1.823h7.812A1.825 1.825 0 0 0 25 12.76V1.823A1.825 1.825 0 0 0 23.177 0z"/>
    </g>
</svg>
