<svg xmlns="http://www.w3.org/2000/svg" width="25" height="25" viewBox="0 0 25 25">
    <g fill="#9EB0C2" fill-rule="nonzero">
        <path d="M3.71 11.719c.592 0 1.127-.237 1.522-.618L7.4 12.185c-.01.088-.027.175-.027.266a2.2 2.2 0 0 0 2.197 2.197 2.2 2.2 0 0 0 2.198-2.197 2.17 2.17 0 0 0-.22-.941l2.94-2.941c.287.137.604.22.942.22a2.2 2.2 0 0 0 2.197-2.197c0-.228-.045-.444-.11-.651l2.556-1.916c.348.233.766.37 1.216.37a2.2 2.2 0 0 0 2.197-2.198A2.2 2.2 0 0 0 21.29 0a2.2 2.2 0 0 0-2.197 2.197c0 .228.045.444.11.651l-2.556 1.916a2.182 2.182 0 0 0-1.216-.37 2.2 2.2 0 0 0-2.198 2.198c0 .338.084.655.22.941l-2.94 2.941a2.17 2.17 0 0 0-.942-.22c-.59 0-1.125.237-1.52.618L5.88 9.788c.011-.089.027-.175.027-.267a2.2 2.2 0 0 0-2.197-2.197 2.2 2.2 0 0 0-2.197 2.197A2.2 2.2 0 0 0 3.71 11.72z"/>
        <path d="M24.268 23.535h-.782V8.057a.732.732 0 0 0-.732-.733h-2.93a.732.732 0 0 0-.732.733v15.478h-1.465V12.451a.732.732 0 0 0-.732-.732h-2.93a.732.732 0 0 0-.733.732v11.084h-1.464v-5.224a.732.732 0 0 0-.733-.733h-2.93a.732.732 0 0 0-.732.733v5.224H5.908v-8.154a.732.732 0 0 0-.732-.733h-2.93a.732.732 0 0 0-.732.733v8.154H.732a.732.732 0 1 0 0 1.465h23.536a.732.732 0 1 0 0-1.465z"/>
    </g>
</svg>
